<?xml version="1.0" standalone="no"?>
<!DOCTYPE svg PUBLIC "-//W3C//DTD SVG 20010904//EN"
 "http://www.w3.org/TR/2001/REC-SVG-20010904/DTD/svg10.dtd">
<svg version="1.0" xmlns="http://www.w3.org/2000/svg"
 width="1008.000000pt" height="434.000000pt" viewBox="0 0 1008.000000 434.000000"
 preserveAspectRatio="xMidYMid meet">

<g transform="translate(0.000000,434.000000) scale(0.100000,-0.100000)"
fill="#7b6ed6" stroke="none">
<path d="M0 2170 l0 -2170 5040 0 5040 0 0 2170 0 2170 -5040 0 -5040 0 0
-2170z m2513 1777 c89 -52 207 -120 262 -152 55 -32 127 -74 160 -92 33 -19
67 -38 75 -43 24 -16 155 -91 515 -298 187 -107 356 -205 375 -216 20 -12 45
-26 55 -32 20 -11 20 -29 23 -956 2 -749 -1 -948 -10 -956 -13 -10 -365 -214
-447 -259 -41 -22 -195 -111 -231 -133 -48 -29 -473 -274 -705 -407 -33 -19
-64 -38 -70 -43 -5 -4 -48 -28 -95 -53 l-86 -46 -39 23 c-168 97 -580 336
-625 361 -30 18 -116 67 -190 110 -74 43 -241 138 -370 213 -129 74 -266 154
-305 177 -38 23 -78 44 -87 48 -17 6 -18 61 -18 957 l0 950 46 28 c26 15 82
48 126 75 44 26 81 47 83 47 4 0 130 72 213 121 45 27 591 342 842 486 129 75
251 146 270 159 19 12 43 23 53 23 9 1 90 -41 180 -92z m2083 -1291 c11 -15
14 -55 14 -165 l0 -146 97 0 c54 0 100 3 103 7 3 4 7 71 8 150 3 109 7 147 18
158 12 12 42 15 140 15 100 0 127 -3 134 -15 6 -9 10 -200 10 -467 0 -437 -1
-453 -19 -463 -29 -15 -243 -13 -264 3 -14 10 -17 37 -19 167 l-3 155 -102 3
-103 3 0 -155 c0 -127 -3 -157 -16 -170 -22 -23 -239 -23 -272 0 l-22 15 0
443 c0 465 0 469 45 478 11 2 69 4 128 4 96 -1 110 -3 123 -20z m1388 5 c14
-12 16 -32 14 -125 l-3 -111 -197 -3 -198 -2 0 -45 0 -45 128 0 c170 0 172 -1
172 -119 0 -130 -1 -130 -169 -133 l-135 -3 0 -45 0 -45 189 -3 c118 -1 193
-7 202 -13 20 -17 18 -212 -3 -233 -13 -14 -58 -16 -335 -16 -306 0 -320 1
-339 20 -19 19 -20 33 -20 458 0 240 4 443 9 450 16 26 78 31 372 29 233 -2
300 -6 313 -16z m442 -6 c9 -12 14 -46 14 -89 0 -67 2 -74 41 -129 49 -68 73
-73 108 -22 13 19 32 44 42 56 15 17 19 38 19 98 0 42 5 83 10 91 7 12 35 15
129 17 161 2 161 2 161 -125 0 -115 -12 -147 -95 -256 -54 -72 -63 -91 -47
-98 14 -6 112 -146 127 -181 22 -52 21 -259 -1 -281 -12 -13 -39 -16 -130 -16
-64 0 -124 5 -135 10 -17 10 -19 22 -19 109 0 97 0 98 -37 151 -52 73 -64 79
-100 49 -51 -42 -76 -106 -79 -203 -1 -49 -8 -93 -14 -101 -18 -22 -252 -22
-270 0 -8 10 -12 53 -11 136 2 138 8 157 86 260 27 35 52 69 57 75 5 6 -14 40
-48 85 -85 112 -92 130 -94 239 -1 52 -2 103 -1 112 2 26 49 36 165 34 93 -2
111 -5 122 -21z m841 -300 l-5 -53 51 -6 c92 -12 128 -27 125 -50 -3 -20 -8
-21 -98 -18 l-96 4 -18 -59 c-10 -32 -38 -109 -62 -171 -45 -117 -51 -150 -34
-183 31 -56 144 21 199 136 42 88 76 132 130 167 72 45 141 34 141 -22 0 -20
5 -30 15 -30 20 0 19 -26 -7 -148 -20 -96 -20 -104 -5 -120 16 -16 21 -13 76
46 51 55 61 72 76 131 23 94 45 128 90 137 20 3 38 4 41 1 3 -3 -11 -55 -30
-116 -20 -61 -36 -124 -36 -140 0 -63 59 -80 108 -32 25 26 30 39 34 98 3 37
16 95 29 128 23 57 26 60 62 63 l37 3 0 -44 c0 -49 -24 -140 -46 -175 -15 -23
-10 -87 7 -98 15 -9 72 31 106 74 49 61 94 158 87 187 -14 57 36 135 87 135
36 0 53 -30 46 -81 l-5 -39 39 0 c30 0 42 -5 55 -25 28 -42 21 -84 -24 -154
-67 -103 -47 -145 40 -85 47 33 77 73 111 146 35 78 73 126 126 160 72 45 141
34 141 -22 0 -20 5 -30 15 -30 20 0 19 -26 -7 -148 -19 -91 -20 -104 -7 -118
14 -13 18 -12 41 6 15 11 49 49 77 83 41 52 53 77 66 136 18 79 39 100 90 87
21 -5 25 -11 19 -28 -6 -19 -4 -19 27 5 63 47 126 48 147 2 18 -39 15 -80 -13
-184 -14 -52 -23 -101 -21 -108 13 -32 105 48 176 152 18 27 32 69 44 130 9
50 19 98 22 108 5 14 -1 17 -38 17 -24 0 -60 5 -81 11 -31 8 -38 14 -35 32 3
20 9 22 90 25 l87 3 12 42 c17 65 36 94 64 99 43 9 59 -12 52 -69 l-6 -51 52
-6 c92 -12 128 -27 125 -50 -3 -20 -8 -21 -98 -18 l-96 4 -18 -59 c-10 -32
-38 -109 -62 -171 -45 -117 -51 -150 -34 -183 27 -49 97 -8 195 111 54 66 85
87 85 56 0 -46 -180 -248 -233 -261 -56 -14 -120 46 -120 112 l0 38 -71 -71
c-75 -76 -112 -93 -159 -75 -51 19 -54 49 -22 175 36 143 26 179 -37 121 -54
-50 -77 -91 -99 -178 -19 -76 -26 -90 -50 -102 -50 -26 -62 -20 -55 24 3 22 9
47 13 56 3 10 -15 -5 -41 -33 -51 -54 -87 -69 -129 -53 -18 7 -28 20 -32 44
l-6 33 -35 -33 c-32 -30 -87 -53 -124 -53 -23 1 -48 24 -60 54 l-10 28 -41
-37 c-75 -67 -127 -77 -176 -32 -36 33 -30 83 20 176 23 44 40 81 37 84 -3 2
-22 7 -42 10 l-38 6 -80 -133 c-90 -150 -102 -164 -122 -143 -11 13 -17 13
-42 0 -36 -19 -73 -9 -88 22 l-11 24 -33 -25 c-80 -62 -204 -24 -204 61 0 8
-21 -8 -46 -35 -49 -52 -85 -67 -127 -51 -18 7 -28 20 -32 44 l-6 33 -35 -33
c-32 -30 -87 -53 -124 -53 -24 1 -49 25 -61 59 l-11 32 -48 -45 c-56 -52 -87
-63 -126 -44 -47 23 -68 61 -66 121 1 45 42 286 58 340 5 14 -1 17 -38 17 -24
0 -60 5 -81 11 -31 8 -38 14 -35 32 3 20 9 22 90 25 l87 3 12 42 c24 88 55
117 103 94 16 -8 18 -17 13 -62z"/>
<path d="M2185 3648 c-82 -48 -161 -94 -175 -101 -44 -24 -63 -35 -155 -89
-49 -30 -198 -116 -330 -192 -132 -75 -247 -141 -255 -146 -51 -31 -172 -100
-176 -100 -3 0 -34 -18 -69 -41 l-65 -41 0 -782 c0 -733 1 -784 18 -798 9 -8
123 -75 252 -148 129 -73 294 -168 365 -210 72 -43 155 -91 185 -107 30 -17
123 -69 205 -118 83 -48 195 -113 251 -145 l101 -57 44 24 c24 13 58 32 75 42
42 25 240 140 564 326 319 184 490 282 510 295 8 5 52 30 98 56 l82 47 0 789
0 788 -52 33 c-29 19 -116 69 -193 112 -77 44 -142 82 -145 85 -3 3 -19 12
-35 21 -17 8 -75 42 -130 74 -172 100 -568 328 -615 354 -25 14 -47 27 -50 31
-3 3 -16 11 -30 17 -14 7 -47 25 -75 41 l-50 28 -150 -88z m872 -553 c61 -18
117 -74 133 -135 8 -29 10 -163 8 -423 -4 -361 -5 -385 -25 -439 -34 -90 -70
-143 -141 -208 -47 -44 -68 -57 -74 -48 -4 7 -8 180 -8 385 l0 372 -22 15
c-18 13 -54 16 -188 16 -146 0 -169 2 -197 20 -87 53 -58 235 51 309 56 38
349 149 397 151 8 0 38 -7 66 -15z m-207 -985 l5 -405 93 -1 c124 -1 132 -9
132 -118 0 -94 -15 -126 -58 -126 -15 0 -32 4 -37 8 -16 11 -35 60 -35 87 0
24 -3 25 -68 25 -53 0 -78 5 -117 26 -98 51 -147 128 -153 242 -2 39 -7 72
-11 72 -3 0 -62 -22 -130 -49 -113 -44 -126 -52 -143 -84 -42 -83 -155 -169
-256 -196 l-42 -12 0 -218 c0 -270 12 -252 -162 -255 -126 -3 -175 4 -190 26
-4 7 -8 185 -8 394 0 427 -4 403 74 411 39 5 43 8 37 27 -7 24 -188 298 -203
307 -6 4 -53 7 -106 8 -111 2 -142 -11 -142 -59 0 -40 23 -50 114 -50 63 0 80
-4 96 -20 20 -20 26 -56 12 -76 -35 -54 -229 -43 -296 17 -81 71 -70 214 23
284 25 19 46 20 676 25 l650 5 3 58 3 58 117 -3 117 -3 5 -405z m-318 -387
c12 -27 26 -56 30 -66 6 -14 0 -22 -27 -38 l-34 -20 -3 -229 c-3 -193 -6 -232
-19 -245 -13 -13 -42 -16 -158 -17 -193 -1 -181 -15 -181 213 l0 178 64 31
c65 32 170 125 202 179 15 26 68 59 97 60 4 1 17 -20 29 -46z"/>
<path d="M2858 2834 c-13 -27 -5 -49 24 -68 27 -17 68 8 68 42 0 15 -5 33 -12
40 -22 22 -67 14 -80 -14z"/>
<path d="M7478 2053 c-41 -43 -78 -131 -78 -185 0 -52 12 -62 50 -43 44 23 72
62 86 122 18 76 18 94 -1 87 -11 -5 -15 1 -15 20 0 33 -10 33 -42 -1z"/>
<path d="M8738 2053 c-41 -43 -78 -131 -78 -185 0 -52 12 -62 50 -43 44 23 72
62 86 122 18 76 18 94 -1 87 -11 -5 -15 1 -15 20 0 33 -10 33 -42 -1z"/>
</g>
</svg>
